HIERARCHY
ROOT hip
{
	OFFSET 0.000000 0.000000 0.000000 
	CHANNELS 6 Xposition Yposition Zposition Xrotation Zrotation Yrotation
	JOINT abdomen
	{
		OFFSET 0.000000 3.402643 0.000000 
		CHANNELS 3 Xrotation Zrotation Yrotation
		JOINT chest
		{
			OFFSET 0.000000 8.438565 -0.680529 
			CHANNELS 3 Xrotation Zrotation Yrotation
			JOINT neck
			{
				OFFSET 0.000000 10.207942 -0.272212 
				CHANNELS 3 Xrotation Zrotation Yrotation
				JOINT head
				{
					OFFSET 0.000000 3.130431 0.000000 
					CHANNELS 3 Xrotation Zrotation Yrotation
					End Site
					{
						OFFSET 0.000000 3.130435 0.000000 
					}
				}
			}
			JOINT lCollar
			{
				OFFSET 3.470700 6.669187 -0.816635 
				CHANNELS 3 Yrotation Zrotation Xrotation
				JOINT lShldr
				{
					OFFSET 3.198488 0.000000 0.000000 
					CHANNELS 3 Zrotation Yrotation Xrotation
					JOINT lForeArm
					{
						OFFSET 10.139888 0.000000 0.000000 
						CHANNELS 3 Yrotation Zrotation Xrotation
						JOINT lHand
						{
							OFFSET 8.370511 0.000000 0.000000 
							CHANNELS 3 Zrotation Yrotation Xrotation
							End Site
							{
								OFFSET 4.083176 0.000000 0.000000 
							}
						}
					}
				}
			}
			JOINT rCollar
			{
				OFFSET -3.470700 6.669187 -0.816635 
				CHANNELS 3 Yrotation Zrotation Xrotation
				JOINT rShldr
				{
					OFFSET -3.198488 0.000000 0.000000 
					CHANNELS 3 Zrotation Yrotation Xrotation
					JOINT rForeArm
					{
						OFFSET -10.139888 0.000000 0.000000 
						CHANNELS 3 Yrotation Zrotation Xrotation
						JOINT rHand
						{
							OFFSET -8.370511 0.000000 0.000000 
							CHANNELS 3 Zrotation Yrotation Xrotation
							End Site
							{
								OFFSET -4.083176 0.000000 0.000000 
							}
						}
					}
				}
			}
		}
	}
	JOINT lThigh
	{
		OFFSET 5.308129 -1.633274 1.361059 
		CHANNELS 3 Xrotation Zrotation Yrotation
		JOINT lShin
		{
			OFFSET -2.041588 -20.007561 0.000000 
			CHANNELS 3 Xrotation Zrotation Yrotation
			JOINT lFoot
			{
				OFFSET 0.000000 -19.190928 -1.224953 
				CHANNELS 3 Xrotation Yrotation Zrotation
				End Site
				{
					OFFSET 0.000000 -2.449906 4.627600 
				}
			}
		}
	}
	JOINT rThigh
	{
		OFFSET -5.308129 -1.633274 1.361059 
		CHANNELS 3 Xrotation Zrotation Yrotation
		JOINT rShin
		{
			OFFSET 2.041588 -20.007561 0.000000 
			CHANNELS 3 Xrotation Zrotation Yrotation
			JOINT rFoot
			{
				OFFSET 0.000000 -19.190928 -1.224953 
				CHANNELS 3 Xrotation Yrotation Zrotation
				End Site
				{
					OFFSET 0.000000 -2.449906 4.627600 
				}
			}
		}
	}
}
MOTION
Frames: 20
Frame Time: 0.033333
-1.346265 48.830193 3.298248 -0.530589 -0.126912 1.464840 0.000000 0.000000 0.000000 -6.052193 -0.038983 -3.662116 0.037060 -0.859340 -0.517666 7.872017 -0.361327 -0.146543 -3.521967 9.154817 6.304141 -29.941124 14.515226 -54.993725 -18.716135 7.044059 16.292332 6.115461 11.206897 -8.520270 3.089181 -14.089146 8.026228 31.956467 -7.277380 -49.838585 10.424644 -8.111087 48.186821 -3.785429 -8.002001 -8.703934 1.013391 6.818028 11.382673 7.395000 -2.567265 -11.089894 -3.877133 0.184744 -1.626116 0.672420 -7.145359 -14.550586 9.733856 0.936385 -2.229988 -5.804560 -0.000473 -0.660459 
-1.337042 48.833977 3.324885 -0.547927 -0.039048 1.542968 0.000000 0.000000 0.000000 -6.014561 -0.165662 -3.740275 -0.050457 -1.015593 -0.459085 7.774401 -0.332030 -0.166069 -3.521967 9.154817 6.304141 -30.120821 14.350940 -55.046345 -18.811224 7.123057 16.481709 6.348204 11.327405 -8.520782 3.089181 -14.089146 8.026228 32.039474 -7.165259 -49.944538 10.499295 -8.186153 48.339909 -3.928911 -8.025479 -8.702811 1.110958 6.701118 11.313796 7.258070 -2.547706 -11.081073 -3.847774 0.189838 -1.634450 0.720917 -7.229760 -14.616164 9.737075 0.884913 -2.184409 -5.792486 -0.051749 -0.672257 
-1.331602 48.832542 3.349442 -0.518934 -0.048809 1.591796 0.000000 0.000000 0.000000 -5.995533 -0.155908 -3.789102 -0.225570 -1.201139 -0.420034 7.764431 -0.185545 -0.234405 -3.521967 9.154817 6.304141 -30.187380 14.278645 -54.906483 -18.737942 7.063873 16.550772 6.486903 11.481750 -8.523273 3.089181 -14.089146 8.026228 32.039089 -7.138078 -49.903004 10.483201 -8.157800 48.424908 -3.993584 -7.978017 -8.719219 1.142106 6.708418 11.323897 7.194194 -2.557821 -11.058116 -3.786988 0.182576 -1.658429 0.701242 -7.219536 -14.615377 9.799659 0.875745 -2.260270 -5.813822 -0.020426 -0.647933 
-1.334539 48.831139 3.375086 -0.519802 -0.078093 1.630858 0.000000 0.000000 0.000000 -5.791514 -0.136404 -3.886732 -0.694214 -0.986288 -0.517670 7.970288 -0.429685 -0.205146 -3.521967 9.154817 6.304141 -30.287739 14.343503 -55.013187 -18.707270 7.052389 16.658461 6.440271 11.294807 -8.529478 3.089181 -14.089146 8.026228 32.093800 -7.098382 -50.023293 10.517192 -8.180197 48.367569 -4.180515 -7.978693 -8.714104 1.142330 6.747421 11.326971 7.270295 -2.538208 -11.110563 -3.887317 0.192304 -1.633567 0.828344 -7.191948 -14.623100 9.637012 0.934716 -2.263924 -5.832454 -0.035092 -0.665060 
-1.344759 48.831600 3.394627 -0.500728 -0.087850 1.748045 0.000000 0.000000 0.000000 -5.719529 -0.185098 -3.984417 -0.908705 -1.025349 -0.517670 8.038940 -0.488278 -0.214919 -3.521967 9.154817 6.304141 -30.191168 14.353046 -54.787773 -18.578428 6.929482 16.373621 6.640192 11.269769 -8.528231 3.089181 -14.089146 8.026228 32.286049 -7.097224 -50.236664 10.559845 -8.249826 48.400295 -4.437407 -7.962463 -8.723095 1.121371 6.751431 11.288112 7.261182 -2.528485 -11.177863 -3.917810 0.184394 -1.594674 0.857913 -7.164510 -14.601244 9.612731 0.933986 -2.401621 -5.871432 -0.041876 -0.657487 
-1.354411 48.831139 3.417816 -0.529780 -0.078087 1.787108 0.000000 0.000000 0.000000 -5.560126 -0.233825 -3.925829 -1.199192 -1.093687 -0.615495 8.089014 -0.546866 -0.322344 -3.521967 9.154817 6.304141 -30.228306 14.197483 -54.947487 -18.641449 7.000583 16.660400 6.546656 11.582670 -8.527407 3.089181 -14.089146 8.026228 32.458080 -7.252910 -50.140888 10.528462 -8.202281 48.161808 -4.493972 -8.031987 -8.728440 1.209854 6.754022 11.317294 7.164028 -2.547894 -11.153490 -3.870015 0.209079 -1.615911 0.936197 -7.155750 -14.590681 9.576489 0.915033 -2.433910 -5.833128 -0.025648 -0.650268 
-1.364301 48.835392 3.450840 -0.598665 -0.097611 1.738279 0.000000 0.000000 0.000000 -5.457686 -0.302017 -3.945412 -1.396323 -0.820252 -0.693568 8.186971 -0.761711 -0.254014 -3.521967 9.154817 6.304141 -30.222713 14.273892 -55.017147 -18.729259 7.078990 16.859833 6.511227 11.616551 -8.529617 3.089181 -14.089146 8.026228 32.626789 -7.173474 -50.078411 10.475701 -8.152229 47.821934 -4.282145 -8.006750 -8.728536 1.287195 6.751594 11.277285 7.270520 -2.460042 -11.195052 -3.877443 0.196142 -1.642507 1.121055 -7.103259 -14.606093 9.426031 0.943599 -2.429232 -5.870856 -0.044589 -0.679984 
-1.375655 48.838219 3.480932 -0.522121 -0.146414 1.777338 0.000000 0.000000 0.000000 -5.534083 -0.321475 -4.013773 -1.384539 -0.898358 -0.761931 8.042033 -0.849595 -0.332140 -3.521967 9.154817 6.304141 -30.232244 14.312764 -55.090210 -18.759132 7.124620 17.023626 6.646486 11.468911 -8.516856 3.089181 -14.089146 8.026228 32.744041 -7.202587 -49.947792 10.397309 -8.088431 47.962402 -4.209661 -8.144190 -8.733837 1.209981 6.814633 11.292598 7.309354 -2.430767 -11.196058 -3.916266 0.187885 -1.635525 1.083302 -7.040999 -14.532105 9.374953 0.913881 -2.560518 -5.862118 -0.023973 -0.670909 
-1.386109 48.841545 3.509984 -0.522571 -0.146399 1.953119 0.000000 0.000000 0.000000 -5.488908 -0.389571 -4.209086 -1.046766 -1.220575 -0.830306 7.486358 -0.595674 -0.566477 -3.521967 9.154817 6.304141 -30.249016 14.373008 -54.960018 -18.720110 7.069701 16.831095 6.864546 11.379733 -8.531095 3.089181 -14.089146 8.026228 32.862499 -7.205012 -49.966152 10.389600 -8.083637 47.911266 -4.269068 -8.203333 -8.730491 1.296432 6.790688 11.270590 7.089700 -2.401185 -11.357549 -3.800270 0.208107 -1.637217 1.120278 -6.983485 -14.507813 9.407743 0.865776 -2.786474 -5.784966 -0.040224 -0.582000 
-1.391640 48.840588 3.538987 -0.531822 -0.126874 2.021479 0.000000 0.000000 0.000000 -5.447124 -0.418747 -4.287280 -1.300079 -1.357299 -0.771731 7.612066 -0.439429 -0.605526 -3.521967 9.154817 6.304141 -30.266775 14.448166 -54.906082 -18.692545 7.071651 17.209618 6.844248 11.326475 -8.532726 3.089181 -14.089146 8.026228 32.955750 -7.190784 -50.167618 10.408786 -8.137544 47.840164 -4.330323 -8.074020 -8.725718 1.315718 6.789939 11.260588 7.153012 -2.391653 -11.370789 -3.736236 0.177928 -1.681308 1.268213 -6.960183 -14.485846 9.216865 0.856692 -2.913078 -5.775321 -0.024583 -0.607068 
-1.383175 48.842003 3.566573 -0.568473 -0.058557 2.021483 0.000000 0.000000 0.000000 -5.396106 -0.447962 -4.287283 -1.583124 -1.386596 -0.761968 7.767351 -0.332011 -0.634812 -3.521967 9.154817 6.304141 -30.293022 14.450855 -54.750061 -18.620487 7.013938 17.240110 6.978258 11.349103 -8.524858 3.089181 -14.089146 8.026228 32.897594 -7.218168 -50.115788 10.399168 -8.102022 47.924362 -4.412546 -8.227044 -8.730232 1.433282 6.712847 11.233850 7.032525 -2.391422 -11.315260 -3.727562 0.178618 -1.659839 1.268178 -7.026973 -14.511017 9.367781 0.816722 -2.908588 -5.891401 -0.054664 -0.609897 
-1.383274 48.835854 3.597937 -0.616288 -0.029278 2.060547 0.000000 0.000000 0.000000 -5.296671 -0.467414 -4.326346 -1.847005 -1.425665 -0.732681 7.894141 -0.322246 -0.625045 -3.521967 9.154817 6.304141 -30.345703 14.403489 -54.872364 -18.675320 7.051984 17.296120 7.259544 11.350660 -8.533644 3.089181 -14.089146 8.026228 32.871136 -7.272201 -50.100044 10.420116 -8.104525 48.066051 -4.464644 -8.316532 -8.742972 1.581512 6.668674 11.219217 6.904990 -2.410925 -11.299025 -3.781509 0.211614 -1.625118 1.286493 -7.063762 -14.533816 9.535475 0.816922 -2.930188 -5.950966 -0.043605 -0.583874 
-1.396053 48.841057 3.614202 -0.617797 -0.068311 2.148436 0.000000 0.000000 0.000000 -5.333513 -0.486833 -4.414235 -1.848827 -1.249892 -0.752200 7.835637 -0.371076 -0.556692 -3.521967 9.154817 6.304141 -30.443512 14.298894 -55.198322 -18.853474 7.241907 17.861412 7.124288 11.456072 -8.531448 3.089181 -14.089146 8.026228 32.901962 -7.269967 -50.003151 10.425446 -8.090544 48.383648 -4.546950 -8.180613 -8.736800 1.580417 6.725019 11.263424 6.953330 -2.410986 -11.399323 -3.730428 0.193920 -1.632335 1.335761 -6.996027 -14.488713 9.497289 0.778121 -3.129691 -5.971065 -0.043879 -0.552076 
-1.417474 48.839638 3.605223 -0.674206 -0.009758 2.216797 0.000000 0.000000 0.000000 -5.284916 -0.603633 -4.463157 -1.821506 -0.995989 -0.830292 7.837109 -0.595681 -0.488356 -3.521967 9.154817 6.304141 -30.344086 14.214844 -55.023663 -18.828655 7.222085 17.959274 7.037477 11.399803 -8.526363 3.089181 -14.089146 8.026228 32.969166 -7.171718 -49.953941 10.437473 -8.110524 48.226227 -4.602244 -8.089733 -8.728737 1.639801 6.718044 11.262403 6.891204 -2.411429 -11.424870 -3.740702 0.189233 -1.613146 1.307576 -6.999542 -14.459431 9.654328 0.709958 -3.244247 -5.971637 -0.047056 -0.510851 
-1.415540 48.838219 3.619653 -0.643779 0.019517 2.207035 0.000000 0.000000 0.000000 -5.256134 -0.603673 -4.414331 -1.882302 -0.771387 -0.908384 7.808521 -0.771463 -0.429780 -3.521967 9.154817 6.304141 -30.408443 14.188207 -55.134586 -18.893173 7.280056 18.111177 6.846794 11.375670 -8.523516 3.089181 -14.089146 8.026228 32.989185 -7.164889 -50.049702 10.463200 -8.126496 48.209129 -4.760613 -8.017550 -8.736141 1.618324 6.683450 11.230244 6.898323 -2.412417 -11.532670 -3.752029 0.198196 -1.598874 1.355886 -7.007577 -14.450194 9.497013 0.699881 -3.212934 -5.951653 -0.044897 -0.541825 
-1.420792 48.839638 3.629543 -0.664430 -0.009759 2.158203 0.000000 0.000000 0.000000 -5.201605 -0.564807 -4.306912 -1.989878 -0.908123 -0.761933 8.001936 -0.556627 -0.400467 -3.521967 9.154817 6.304141 -30.415081 14.101312 -55.172440 -18.876181 7.280693 18.343943 6.898201 11.465705 -8.530640 3.089181 -14.089146 8.026228 33.065796 -7.167728 -50.221268 10.515615 -8.198539 48.942909 -4.546729 -8.061630 -8.738935 1.658369 6.715178 11.271972 6.909321 -2.411333 -11.513712 -3.682336 0.202518 -1.628541 1.384309 -6.985802 -14.458247 9.492907 0.718853 -3.143481 -5.950866 -0.062669 -0.549643 
-1.425663 48.834911 3.640664 -0.617015 -0.048796 2.089843 0.000000 0.000000 0.000000 -5.218068 -0.486964 -4.209164 -2.196504 -0.996038 -0.605717 8.331652 -0.263667 -0.341838 -3.521967 9.154817 6.304141 -30.435112 14.106336 -55.113216 -18.828960 7.257560 18.482656 7.000877 11.332907 -8.523979 3.089181 -14.089146 8.026228 33.049656 -7.132534 -50.074150 10.489094 -8.138607 48.973667 -4.774491 -8.169105 -8.738778 1.639201 6.763927 11.315557 6.869805 -2.460073 -11.298789 -3.731687 0.217915 -1.654034 1.355810 -6.959530 -14.436375 9.501047 0.729793 -3.123019 -5.970414 -0.062645 -0.549678 
-1.428361 48.840122 3.659770 -0.539602 -0.068314 2.089842 0.000000 0.000000 0.000000 -5.329298 -0.438284 -4.179864 -2.001871 -0.996045 -0.566660 8.291676 -0.117186 -0.322285 -3.521967 9.154817 6.304141 -30.454010 14.125112 -55.005032 -18.772539 7.213771 18.522875 7.068222 11.504879 -8.524593 3.089181 -14.089146 8.026228 33.043961 -7.104066 -49.858860 10.430770 -8.063084 48.660141 -5.126369 -8.280265 -8.760267 1.589825 6.771692 11.286979 6.892375 -2.410640 -11.395491 -3.761826 0.211082 -1.625262 1.345939 -6.949593 -14.445434 9.389528 0.777967 -3.134605 -5.999267 -0.060159 -0.580620 
-1.430678 48.841545 3.657129 -0.519009 -0.039036 2.099608 0.000000 0.000000 0.000000 -5.406155 -0.457775 -4.160335 -1.720739 -0.712848 -0.625073 8.272843 -0.332028 -0.234428 -3.521967 9.154817 6.304141 -30.492214 13.986345 -55.082504 -18.839338 7.254879 18.442841 6.955226 11.704466 -8.522853 3.089181 -14.089146 8.026228 33.090103 -7.016623 -49.929832 10.473662 -8.105623 49.248238 -5.133753 -8.241024 -8.753573 1.580220 6.724388 11.273240 6.862340 -2.421195 -11.248035 -3.787503 0.186876 -1.656637 1.288007 -6.980236 -14.467732 9.479741 0.758842 -3.141555 -6.009997 -0.055986 -0.536183 
-1.435835 48.850998 3.671755 -0.412649 -0.068314 2.089842 0.000000 0.000000 0.000000 -5.511142 -0.360394 -4.121196 -1.537403 -0.429651 -0.742240 8.185333 -0.927733 -0.107566 -3.521967 9.154817 6.304141 -30.673212 13.931346 -55.232746 -18.884079 7.301064 18.480074 6.750670 11.639299 -8.530771 3.089181 -14.089146 8.026228 33.012661 -7.005515 -49.745575 10.418938 -8.028024 48.823505 -5.283448 -8.336978 -8.761858 1.492538 6.782026 11.288377 6.846086 -2.440067 -11.267527 -3.726122 0.171393 -1.673416 1.160665 -6.959679 -14.417097 9.558913 0.749306 -3.138614 -5.855469 -0.031627 -0.471876 
